<svg xmlns="http://www.w3.org/2000/svg" width="21" height="21" fill="none"><g clip-path="url(#a)"><path fill="#A6A6A6" fill-rule="evenodd" d="M20.04 5.305c.14-.473 0-.805-.657-.805h-2.188c-.563 0-.813.3-.954.632 0 0-1.11 2.747-2.689 4.515-.515.521-.734.68-1.016.68-.14 0-.344-.159-.344-.632v-4.39c0-.568-.156-.805-.625-.805H8.128c-.344 0-.563.268-.563.505 0 .537.782.663.876 2.148v3.252c0 .71-.125.837-.407.837-.734 0-2.548-2.747-3.61-5.905C4.204 4.753 4 4.5 3.439 4.5H1.25c-.625 0-.75.3-.75.632 0 .584.735 3.49 3.455 7.326 1.813 2.62 4.36 4.042 6.674 4.042 1.392 0 1.563-.316 1.563-.853v-1.99c0-.63.126-.757.579-.757.328 0 .875.158 2.173 1.421 1.485 1.5 1.735 2.179 2.563 2.179h2.189c.625 0 .938-.316.75-.932-.203-.615-.907-1.515-1.845-2.59-.515-.615-1.281-1.262-1.5-1.594-.328-.426-.235-.616 0-.979 0-.015 2.673-3.805 2.939-5.1" clip-rule="evenodd"/></g><defs><clipPath id="a"><path fill="#fff" d="M.5.5h20v20H.5z"/></clipPath></defs></svg>